# xmcd
#
# Track frame offsets:
#	150
#	23093
#	47269
#	78846
#	104772
#	130396
#	137092
#	164538
#	200260
#	234792
#	268345
#
# Disc length: 3899 seconds
#
# Revision: 1
# Processed by: cddbd v1.5.2PL0 Copyright (c) Steve Scherf et al.
# Submitted via: audiograbber 1.83.01
#
DISCID=8f0f390b
DTITLE=Lyle Brewer - Wiked Live!
DYEAR=2012
DGENRE=Country - Rock
TTITLE0=Cannonball Rag
TTITLE1=Summerville Shuffle
TTITLE2=Surfer Girl
TTITLE3=Green Onions
TTITLE4=Mr. Sandman
TTITLE5=Stella by Starlight
TTITLE6=Mary Elizabeth
TTITLE7=Cherokee
TTITLE8=Baby's Coming Home
TTITLE9=Chitlins con Carne
TTITLE10=I Still Miss Someone
EXTD=
EXTT0=
EXTT1=
EXTT2=
EXTT3=
EXTT4=
EXTT5=
EXTT6=
EXTT7=
EXTT8=
EXTT9=
EXTT10=
PLAYORDER=
